<svg width="1184" height="341" viewBox="0 0 1184 341" fill="none" xmlns="http://www.w3.org/2000/svg">
<path d="M170 91L330.5 313L487 91" stroke="#17B5AD" stroke-width="3" stroke-dasharray="6 6"/>
<path d="M661 86L821.5 313L978 86" stroke="#17B5AD" stroke-width="3" stroke-dasharray="6 6"/>
<path d="M364 339.5C410.668 339.5 448.5 301.668 448.5 255C448.5 208.332 410.668 170.5 364 170.5C317.332 170.5 279.5 208.332 279.5 255C279.5 301.668 317.332 339.5 364 339.5Z" fill="white" stroke="#9999FF" stroke-width="3" stroke-dasharray="6 6"/>
<path d="M853 339.5C899.668 339.5 937.5 301.668 937.5 255C937.5 208.332 899.668 170.5 853 170.5C806.332 170.5 768.5 208.332 768.5 255C768.5 301.668 806.332 339.5 853 339.5Z" stroke="#9999FF" stroke-width="3" stroke-dasharray="6 6"/>
<path d="M204.5 26.5H35.5V195.5H204.5V26.5Z" fill="white" stroke="#FD8289" stroke-width="3" stroke-dasharray="6 6"/>
<path d="M1182.5 26.5H1013.5V195.5H1182.5V26.5Z" stroke="#FD8289" stroke-width="3" stroke-dasharray="6 6"/>
<path d="M692.5 26.5H523.5V195.5H692.5V26.5Z" fill="white" stroke="#FD8289" stroke-width="3" stroke-dasharray="6 6"/>
<path d="M1.5 1.5L1.5 170.5H170.5V1.5H1.5Z" fill="white" stroke="#FEB4B8" stroke-width="3"/>
<path d="M978.5 1.5V170.5H1147.5V1.5H978.5Z" fill="white" stroke="#FEB4B8" stroke-width="3"/>
<path d="M489.5 1.5V170.5H658.5V1.5H489.5Z" fill="white" stroke="#FEB4B8" stroke-width="3"/>
<path d="M330 314.5C376.668 314.5 414.5 276.668 414.5 230C414.5 183.332 376.668 145.5 330 145.5C283.332 145.5 245.5 183.332 245.5 230C245.5 276.668 283.332 314.5 330 314.5Z" fill="white" stroke="#9999FF" stroke-width="3"/>
<path d="M819 314.5C865.668 314.5 903.5 276.668 903.5 230C903.5 183.332 865.668 145.5 819 145.5C772.332 145.5 734.5 183.332 734.5 230C734.5 276.668 772.332 314.5 819 314.5Z" fill="white" stroke="#9999FF" stroke-width="3"/>
</svg>
